<svg fill="#ffffff" xmlns="http://www.w3.org/2000/svg"  viewBox="0 0 50 50" width="150px" height="150px"><path d="M 19.75 3 C 17.558594 3.027344 15.417969 3.472656 13.425781 4.257813 C 13.3125 4.285156 13.203125 4.332031 13.105469 4.394531 C 11.414063 5.097656 9.835938 6.046875 8.429688 7.226563 C 8.296875 7.296875 8.183594 7.398438 8.097656 7.523438 C 5.640625 9.683594 3.742188 12.535156 2.75 15.890625 C 2.679688 16.019531 2.636719 16.160156 2.625 16.308594 C 2.625 16.308594 2.625 16.308594 2.625 16.3125 C 1.710938 19.699219 1.832031 23.128906 2.796875 26.265625 C 2.804688 26.410156 2.847656 26.550781 2.921875 26.675781 C 3.5 28.410156 4.339844 30.046875 5.40625 31.53125 C 5.464844 31.652344 5.546875 31.761719 5.648438 31.855469 C 6.035156 32.367188 6.449219 32.859375 6.890625 33.328125 L 2.371094 47 L 12.027344 47 L 14.542969 38.132813 C 14.730469 38.191406 14.910156 38.265625 15.101563 38.320313 C 15.65625 38.476563 16.214844 38.597656 16.769531 38.699219 L 19.394531 47 L 46.324219 47 L 48.425781 39 L 40.011719 39 L 44.480469 22 L 37.96875 22 C 38.089844 19.859375 37.816406 17.753906 37.207031 15.765625 C 37.199219 15.609375 37.15625 15.457031 37.078125 15.320313 C 36.507813 13.609375 35.667969 12 34.621094 10.535156 C 34.621094 10.535156 34.621094 10.53125 34.621094 10.53125 C 34.558594 10.371094 34.453125 10.226563 34.320313 10.121094 C 32.078125 7.160156 28.910156 4.867188 25.089844 3.742188 C 24.96875 3.679688 24.839844 3.644531 24.703125 3.632813 C 24.703125 3.632813 24.699219 3.632813 24.699219 3.632813 C 23.570313 3.328125 22.4375 3.128906 21.3125 3.046875 C 20.789063 3.007813 20.269531 2.992188 19.75 3 Z M 18.695313 5.054688 C 18.066406 5.488281 17.453125 6.003906 16.859375 6.578125 C 16.398438 6.269531 15.960938 5.957031 15.566406 5.636719 C 16.582031 5.34375 17.628906 5.144531 18.695313 5.054688 Z M 23.351563 5.476563 L 22.3125 9.15625 C 20.984375 8.726563 19.757813 8.207031 18.65625 7.632813 C 20.277344 6.175781 21.898438 5.449219 23.351563 5.476563 Z M 25.277344 6.015625 C 26.527344 6.757813 27.527344 8.222656 28.148438 10.316406 C 26.90625 10.226563 25.589844 10.027344 24.234375 9.703125 Z M 13.425781 6.414063 C 14.027344 6.992188 14.722656 7.546875 15.484375 8.070313 C 14.683594 9.046875 13.933594 10.164063 13.238281 11.378906 C 11.828125 10.375 10.773438 9.320313 10.1875 8.375 C 11.1875 7.597656 12.273438 6.933594 13.425781 6.414063 Z M 29.449219 8.089844 C 30.316406 8.726563 31.113281 9.445313 31.828125 10.234375 C 31.324219 10.300781 30.78125 10.339844 30.222656 10.359375 C 30.019531 9.554688 29.761719 8.792969 29.449219 8.089844 Z M 17.210938 9.140625 C 18.570313 9.890625 20.101563 10.546875 21.765625 11.078125 L 20.679688 14.921875 C 18.523438 14.238281 16.578125 13.394531 14.9375 12.453125 C 15.640625 11.203125 16.40625 10.085938 17.210938 9.140625 Z M 8.65625 9.714844 C 9.480469 10.949219 10.742188 12.097656 12.296875 13.171875 C 11.679688 14.464844 11.136719 15.855469 10.671875 17.324219 L 4.90625 15.691406 C 5.71875 13.378906 7.019531 11.359375 8.65625 9.714844 Z M 23.6875 11.625 C 25.386719 12.039063 27.039063 12.285156 28.59375 12.355469 C 28.78125 13.585938 28.851563 14.9375 28.796875 16.375 C 26.90625 16.316406 24.800781 16.015625 22.605469 15.464844 Z M 33.234375 12.015625 C 33.945313 13.066406 34.523438 14.199219 34.96875 15.386719 C 33.980469 15.878906 32.53125 16.226563 30.800781 16.34375 C 30.847656 14.945313 30.785156 13.605469 30.613281 12.351563 C 31.539063 12.304688 32.421875 12.195313 33.234375 12.015625 Z M 14.011719 14.230469 C 15.789063 15.242188 17.859375 16.132813 20.136719 16.84375 L 19.308594 19.765625 L 12.597656 17.867188 C 13.007813 16.585938 13.476563 15.363281 14.011719 14.230469 Z M 35.574219 17.324219 C 35.929688 18.832031 36.058594 20.40625 35.957031 22 L 30.050781 22 C 30.332031 20.765625 30.539063 19.546875 30.664063 18.359375 C 32.550781 18.261719 34.226563 17.941406 35.574219 17.324219 Z M 22.058594 17.390625 C 24.371094 17.972656 26.597656 18.296875 28.644531 18.367188 C 28.511719 19.546875 28.292969 20.761719 27.996094 22 L 27.769531 22 L 27.722656 22.144531 L 21.234375 20.308594 Z M 4.363281 17.617188 L 10.132813 19.25 C 9.757813 20.742188 9.488281 22.210938 9.339844 23.640625 C 7.453125 23.734375 5.78125 24.058594 4.433594 24.679688 C 3.898438 22.421875 3.84375 20.019531 4.363281 17.617188 Z M 12.058594 19.792969 L 18.765625 21.6875 L 18.675781 22 L 11.589844 22 C 11.714844 21.273438 11.875 20.535156 12.058594 19.792969 Z M 20.6875 22.234375 L 27.128906 24.058594 L 25.980469 27.753906 C 24.5 26.914063 22.820313 26.152344 20.984375 25.511719 L 20.359375 23.394531 Z M 12.082031 24 L 18.453125 24 L 21.324219 33.71875 C 21.320313 33.925781 21.378906 34.132813 21.496094 34.304688 L 23.707031 41.792969 L 29.242188 24 L 34.066406 24 L 28.046875 45 L 20.859375 45 L 18.550781 37.703125 C 18.539063 37.582031 18.5 37.464844 18.441406 37.355469 L 15.40625 27.757813 L 12.953125 36.414063 L 12.949219 36.421875 C 12.902344 36.519531 12.875 36.625 12.859375 36.730469 L 10.515625 45 L 5.140625 45 L 9.65625 31.328125 C 9.839844 31.125 9.925781 30.855469 9.90625 30.582031 Z M 36.144531 24 L 41.886719 24 L 37.417969 41 L 45.832031 41 L 44.78125 45 L 30.128906 45 Z M 9.195313 25.652344 C 9.1875 25.902344 9.183594 26.152344 9.179688 26.402344 L 8.070313 29.765625 C 7.625 29.820313 7.195313 29.894531 6.78125 29.984375 C 6.070313 28.929688 5.472656 27.808594 5.023438 26.617188 C 6.019531 26.121094 7.464844 25.773438 9.195313 25.652344 Z M 21.691406 27.90625 C 23.050781 28.453125 24.277344 29.066406 25.371094 29.71875 L 24.140625 33.664063 C 23.851563 33.476563 23.542969 33.296875 23.234375 33.117188 Z M 15.511719 34.71875 L 16.078125 36.503906 C 15.933594 36.46875 15.789063 36.4375 15.644531 36.394531 C 15.457031 36.34375 15.273438 36.269531 15.089844 36.210938 Z"/></svg>